<svg xmlns="http://www.w3.org/2000/svg" width="34.685" height="36" viewBox="0 0 34.685 36">
  <g id="iconBug" transform="translate(-3 -2)">
    <path id="Caminho_2" data-name="Caminho 2" d="M9.917,6c1-1,.25-4-1.438-4S6.917,4,7.917,4s1,2,1,3S9.917,6,9.917,6ZM5.734,7.72c1-1,.25-4-1.438-4s-1.562,2-.562,2,1,2,1,3S5.734,7.72,5.734,7.72Z" fill="#aa8dd8"/>
    <path id="Caminho_3" data-name="Caminho 3" d="M32.109,34.856c.189.808,1.227,2.28,2.032,2.091s1.077-1.971.888-2.777a1.5,1.5,0,1,0-2.92.686Zm-5.434.649c0,.83.681,2.5,1.509,2.495s1.494-1.677,1.491-2.506a1.5,1.5,0,1,0-3,.011ZM21.4,33.059c-.326.764-.365,2.563.4,2.89s2.037-.947,2.363-1.71a1.5,1.5,0,1,0-2.759-1.18Zm-5.031-11.04c-.812.172-2.308,1.173-2.139,1.983s1.945,1.124,2.757.953a1.5,1.5,0,1,0-.618-2.936Zm-2.037-5c-.812.172-2.308,1.173-2.139,1.983s1.945,1.124,2.757.953a1.5,1.5,0,1,0-.618-2.936Z" fill="#744eaa"/>
    <path id="Caminho_4" data-name="Caminho 4" d="M29.746,36a13.768,13.768,0,0,0,5.266-1.027,4.5,4.5,0,0,0-3.588-8.253,4.684,4.684,0,0,1-3.343-.072c-1.851-.861-3-3.309-3.628-5.209-.144-.43-.385-1.274-.686-2.316-1.866-6.471-2.832-8.285-3.983-9.82A12.824,12.824,0,0,0,7.3,4.587a4.5,4.5,0,1,0,1.766,8.825,3.9,3.9,0,0,1,3.424,1.169,61.729,61.729,0,0,1,2.63,7.034c.346,1.2.629,2.171.794,2.667,1.773,5.317,4.666,8.893,8.6,10.629A12.867,12.867,0,0,0,29.746,36Z" fill="#9266cc"/>
    <path id="Caminho_5" data-name="Caminho 5" d="M9.184,8a1,1,0,1,0-1-1A1,1,0,0,0,9.184,8Z" fill="#202024"/>
    <path id="Caminho_6" data-name="Caminho 6" d="M33.425,34.964a1.037,1.037,0,0,1-.269-.036,1,1,0,0,1-.7-1.231,5.181,5.181,0,0,0-.785-4.56,1,1,0,0,1,1.517-1.3,7.192,7.192,0,0,1,1.195,6.4A1,1,0,0,1,33.425,34.964Zm-7.2-.563a1,1,0,0,1-.731-1.684,6.8,6.8,0,0,0,1.452-4.22,1,1,0,0,1,.972-1.028,1.013,1.013,0,0,1,1.028.972,8.718,8.718,0,0,1-1.991,5.644A1,1,0,0,1,26.226,34.4Zm-8.542-8.7a1,1,0,0,1-.162-1.986,8.786,8.786,0,0,0,4.791-2.4,1,1,0,0,1,1.5,1.322,10.634,10.634,0,0,1-5.964,3.046A.935.935,0,0,1,17.684,25.7ZM20.6,30.562a1,1,0,0,1-.3-1.953,7.3,7.3,0,0,0,3.892-2.85A1,1,0,0,1,25.92,26.77a9.3,9.3,0,0,1-5.013,3.744A.971.971,0,0,1,20.6,30.562Zm-4.619-10.67a1,1,0,0,1-.124-1.993,10.027,10.027,0,0,0,4.676-1.988,1,1,0,0,1,1.293,1.526,11.917,11.917,0,0,1-5.718,2.446A.915.915,0,0,1,15.986,19.892Zm-1.821-4.767a1,1,0,0,1-.3-1.955,7.93,7.93,0,0,0,4.3-2.764,1,1,0,0,1,1.7,1.054,9.8,9.8,0,0,1-5.4,3.619A1,1,0,0,1,14.165,15.125Z" fill="#744eaa"/>
  </g>
</svg>
