<svg xmlns="http://www.w3.org/2000/svg" width="22" height="34.86" viewBox="0 0 22 34.86">
  <g id="iconIdea" transform="translate(-9 -3)">
    <path id="Caminho_7" data-name="Caminho 7" d="M31,13.92c0,6.439-5,7.439-5,13.44,0,3.1-3.123,3.359-5.5,3.359-2.053,0-6.586-.779-6.586-3.361,0-6-4.914-7-4.914-13.438A11.214,11.214,0,0,1,20.083,3,11.068,11.068,0,0,1,31,13.92Z" fill="#ffd983"/>
    <path id="Caminho_8" data-name="Caminho 8" d="M24.167,35.36c0,.828-2.234,2.5-4.167,2.5s-4.167-1.672-4.167-2.5,2.233-.5,4.167-.5S24.167,34.532,24.167,35.36Z" fill="#ccd6dd"/>
    <path id="Caminho_9" data-name="Caminho 9" d="M24.707,13.153a1,1,0,0,0-1.414,0L20,16.446l-3.293-3.293a1,1,0,1,0-1.414,1.414L19,18.274V28.86a1,1,0,1,0,2,0V18.274l3.707-3.707A1,1,0,0,0,24.707,13.153Z" fill="#ffcc4d"/>
    <path id="Caminho_10" data-name="Caminho 10" d="M26,33.86a2,2,0,0,1-2,2H16a2,2,0,0,1-2-2v-6H26Z" fill="#99aab5"/>
    <path id="Caminho_11" data-name="Caminho 11" d="M14,34.86a1,1,0,0,1-.163-1.986l12-2a1,1,0,1,1,.328,1.972l-12,2A.927.927,0,0,1,14,34.86Zm0-4a1,1,0,0,1-.163-1.986l12-2a1,1,0,1,1,.328,1.972l-12,2A.927.927,0,0,1,14,30.86Z" fill="#ccd6dd"/>
  </g>
</svg>
