<svg xmlns="http://www.w3.org/2000/svg" width="36" height="36" viewBox="0 0 36 36">
  <g id="Success" transform="translate(-0.5)">
    <path id="Caminho_16" data-name="Caminho 16" d="M36.5,32a4,4,0,0,1-4,4H4.5a4,4,0,0,1-4-4V4a4,4,0,0,1,4-4h28a4,4,0,0,1,4,4Z" fill="#77b255"/>
    <path id="Caminho_17" data-name="Caminho 17" d="M29.78,6.362a2.5,2.5,0,0,0-3.458.736L15.436,23.877l-5.029-4.65A2.5,2.5,0,1,0,7.013,22.9l7.209,6.666a2.5,2.5,0,0,0,3.8-.474c.332-.506,12.5-19.27,12.5-19.27A2.5,2.5,0,0,0,29.78,6.362Z" fill="#fff"/>
  </g>
</svg>
