<svg xmlns="http://www.w3.org/2000/svg" width="35" height="32.875" viewBox="0 0 35 32.875">
  <g id="iconTought" transform="translate(-3 -4)">
    <path id="Caminho_12" data-name="Caminho 12" d="M38,14.875A7,7,0,0,0,27.768,8.669,11.428,11.428,0,0,0,7.64,12.036a5.993,5.993,0,0,0,.381,11.752A7.485,7.485,0,0,0,21,28.462,7.489,7.489,0,0,0,33.711,21.33,7,7,0,0,0,38,14.875Z" fill="#85c8f8"/>
    <path id="Caminho_13" data-name="Caminho 13" d="M7,36.875a3,3,0,1,0-3-3A3,3,0,0,0,7,36.875Z" fill="#85c8f8"/>
  </g>
</svg>
